<?xml version="1.0" encoding="UTF-8" standalone="no"?>
<!DOCTYPE svg PUBLIC "-//W3C//DTD SVG 1.1//EN"
 "http://www.w3.org/Graphics/SVG/1.1/DTD/svg11.dtd">
<!-- Generated by graphviz version 2.40.1 (20161225.0304)
 -->
<!-- Title: A Pages: 1 -->
<svg width="1062pt" height="496pt"
 viewBox="0.00 0.00 1062.00 496.00" xmlns="http://www.w3.org/2000/svg" xmlns:xlink="http://www.w3.org/1999/xlink">
<g id="graph0" class="graph" transform="scale(1 1) rotate(0) translate(4 492)">
<title>A</title>
<polygon fill="#f3f4f6" stroke="transparent" points="-4,4 -4,-492 1058,-492 1058,4 -4,4"/>
<g id="clust1" class="cluster">
<title>cluster_a</title>
<polygon fill="#f3f4f6" stroke="#f3f4f6" points="8,-8 8,-480 280,-480 280,-8 8,-8"/>
</g>
<g id="clust2" class="cluster">
<title>cluster_c</title>
<polygon fill="#f3f4f6" stroke="#f3f4f6" points="288,-148 288,-480 551,-480 551,-148 288,-148"/>
</g>
<g id="clust3" class="cluster">
<title>cluster_b</title>
<polygon fill="#f3f4f6" stroke="#f3f4f6" points="559,-8 559,-480 1046,-480 1046,-8 559,-8"/>
</g>
<!-- start -->
<g id="node1" class="node">
<title>start</title>
<polygon fill="#ffffff" stroke="#bbbbbb" points="244,-472 32,-472 32,-436 244,-436 244,-472"/>
<text text-anchor="middle" x="138" y="-450.3" font-family="Lato" font-size="14.00" fill="#000000"> Lifecycle of first Contribution </text>
</g>
<!-- statusPending -->
<g id="node2" class="node">
<title>statusPending</title>
<polygon fill="#fbfbfb" stroke="#0284ea" points="172,-347 104,-347 104,-311 172,-311 172,-347"/>
<text text-anchor="middle" x="138" y="-325.3" font-family="Lato" font-size="14.00" fill="#0284ea">Pending</text>
</g>
<!-- start&#45;&gt;statusPending -->
<g id="edge1" class="edge">
<title>start&#45;&gt;statusPending</title>
<path fill="none" stroke="#22b022" d="M138,-435.8239C138,-415.2723 138,-381.5472 138,-357.4893"/>
<polygon fill="#22b022" stroke="#22b022" points="141.5001,-357.198 138,-347.198 134.5001,-357.198 141.5001,-357.198"/>
<text text-anchor="middle" x="188" y="-387.8" font-family="Lato" font-size="14.00" fill="#22b022">User starts flow</text>
</g>
<!-- statusComplete -->
<g id="node3" class="node">
<title>statusComplete</title>
<polygon fill="#fbfbfb" stroke="#0284ea" points="94,-192 16,-192 16,-156 94,-156 94,-192"/>
<text text-anchor="middle" x="55" y="-170.3" font-family="Lato" font-size="14.00" fill="#0284ea">Complete</text>
</g>
<!-- statusPending&#45;&gt;statusComplete -->
<g id="edge2" class="edge">
<title>statusPending&#45;&gt;statusComplete</title>
<path fill="none" stroke="#22b022" d="M106.3801,-310.8733C93.0226,-301.5731 78.5977,-289.0233 70,-274 57.5253,-252.2021 54.3088,-223.5372 53.8986,-202.4878"/>
<polygon fill="#22b022" stroke="#22b022" points="57.3987,-202.2538 53.9058,-192.2513 50.3987,-202.2488 57.3987,-202.2538"/>
<text text-anchor="start" x="70" y="-255.3" font-family="Lato" font-size="14.00" fill="#22b022">Payment</text>
<text text-anchor="middle" x="104" y="-240.3" font-family="Lato" font-size="14.00" fill="#22b022">Confirmed</text>
</g>
<!-- statusCancelled -->
<g id="node4" class="node">
<title>statusCancelled</title>
<polygon fill="#fbfbfb" stroke="#0284ea" points="189.5,-192 112.5,-192 112.5,-156 189.5,-156 189.5,-192"/>
<text text-anchor="middle" x="151" y="-170.3" font-family="Lato" font-size="14.00" fill="#0284ea">Cancelled</text>
</g>
<!-- statusPending&#45;&gt;statusCancelled -->
<g id="edge4" class="edge">
<title>statusPending&#45;&gt;statusCancelled</title>
<path fill="none" stroke="#b02222" d="M139.5167,-310.9162C141.7455,-284.3422 145.9278,-234.4757 148.5829,-202.819"/>
<polygon fill="#b02222" stroke="#b02222" points="152.1045,-202.7067 149.4527,-192.4491 145.129,-202.1216 152.1045,-202.7067"/>
<text text-anchor="middle" x="176.5" y="-247.8" font-family="Lato" font-size="14.00" fill="#b02222">Cancelled</text>
</g>
<!-- statusFailed -->
<g id="node5" class="node">
<title>statusFailed</title>
<polygon fill="#fbfbfb" stroke="#0284ea" points="262,-192 208,-192 208,-156 262,-156 262,-192"/>
<text text-anchor="middle" x="235" y="-170.3" font-family="Lato" font-size="14.00" fill="#0284ea">Failed</text>
</g>
<!-- statusPending&#45;&gt;statusFailed -->
<g id="edge5" class="edge">
<title>statusPending&#45;&gt;statusFailed</title>
<path fill="none" stroke="#b02222" d="M171.3093,-310.97C185.5206,-301.6894 201.0815,-289.1281 211,-274 225.1529,-252.4135 230.9747,-223.3152 233.3615,-202.0742"/>
<polygon fill="#b02222" stroke="#b02222" points="236.852,-202.3382 234.3006,-192.0552 229.8825,-201.6849 236.852,-202.3382"/>
<text text-anchor="middle" x="246.5" y="-247.8" font-family="Lato" font-size="14.00" fill="#b02222">Failed</text>
</g>
<!-- statusRefunded -->
<g id="node6" class="node">
<title>statusRefunded</title>
<polygon fill="#fbfbfb" stroke="#0284ea" points="94,-52 16,-52 16,-16 94,-16 94,-52"/>
<text text-anchor="middle" x="55" y="-30.3" font-family="Lato" font-size="14.00" fill="#0284ea">Refunded</text>
</g>
<!-- statusComplete&#45;&gt;statusRefunded -->
<g id="edge3" class="edge">
<title>statusComplete&#45;&gt;statusRefunded</title>
<path fill="none" stroke="#b02222" d="M55,-155.9841C55,-132.3829 55,-90.7198 55,-62.7374"/>
<polygon fill="#b02222" stroke="#b02222" points="58.5001,-62.3913 55,-52.3914 51.5001,-62.3914 58.5001,-62.3913"/>
<text text-anchor="start" x="55" y="-107.8" font-family="Lato" font-size="14.00" fill="#b02222">Late</text>
<text text-anchor="middle" x="76.5" y="-92.8" font-family="Lato" font-size="14.00" fill="#b02222">Failure</text>
</g>
<!-- startNew -->
<g id="node7" class="node">
<title>startNew</title>
<polygon fill="#ffffff" stroke="#bbbbbb" points="532,-472 320,-472 320,-436 532,-436 532,-472"/>
<text text-anchor="middle" x="426" y="-450.3" font-family="Lato" font-size="14.00" fill="#000000">Lifecycle of new Contributions</text>
</g>
<!-- statusNewComplete -->
<g id="node8" class="node">
<title>statusNewComplete</title>
<polygon fill="#fbfbfb" stroke="#0284ea" points="374,-347 296,-347 296,-311 374,-311 374,-347"/>
<text text-anchor="middle" x="335" y="-325.3" font-family="Lato" font-size="14.00" fill="#0284ea">Complete</text>
</g>
<!-- startNew&#45;&gt;statusNewComplete -->
<g id="edge6" class="edge">
<title>startNew&#45;&gt;statusNewComplete</title>
<path fill="none" stroke="#22b022" d="M395.1504,-435.9369C381.4145,-426.4972 366.0955,-413.8155 356,-399 347.6,-386.6727 342.4863,-370.9039 339.412,-357.4548"/>
<polygon fill="#22b022" stroke="#22b022" points="342.7673,-356.3873 337.36,-347.2762 335.9054,-357.7707 342.7673,-356.3873"/>
<text text-anchor="middle" x="390" y="-387.8" font-family="Lato" font-size="14.00" fill="#22b022">Confirmed</text>
</g>
<!-- statusNewCancelled -->
<g id="node9" class="node">
<title>statusNewCancelled</title>
<polygon fill="#fbfbfb" stroke="#0284ea" points="469.5,-347 392.5,-347 392.5,-311 469.5,-311 469.5,-347"/>
<text text-anchor="middle" x="431" y="-325.3" font-family="Lato" font-size="14.00" fill="#0284ea">Cancelled</text>
</g>
<!-- startNew&#45;&gt;statusNewCancelled -->
<g id="edge8" class="edge">
<title>startNew&#45;&gt;statusNewCancelled</title>
<path fill="none" stroke="#b02222" d="M426.727,-435.8239C427.5491,-415.2723 428.8981,-381.5472 429.8604,-357.4893"/>
<polygon fill="#b02222" stroke="#b02222" points="433.3695,-357.3299 430.2721,-347.198 426.3751,-357.0501 433.3695,-357.3299"/>
<text text-anchor="middle" x="458.5" y="-387.8" font-family="Lato" font-size="14.00" fill="#b02222">Cancelled</text>
</g>
<!-- statusNewFailed -->
<g id="node10" class="node">
<title>statusNewFailed</title>
<polygon fill="#fbfbfb" stroke="#0284ea" points="475,-192 421,-192 421,-156 475,-156 475,-192"/>
<text text-anchor="middle" x="448" y="-170.3" font-family="Lato" font-size="14.00" fill="#0284ea">Failed</text>
</g>
<!-- startNew&#45;&gt;statusNewFailed -->
<g id="edge7" class="edge">
<title>startNew&#45;&gt;statusNewFailed</title>
<path fill="none" stroke="#b02222" d="M472.9991,-435.9251C490.4128,-425.9276 506,-411.4162 506,-391.5 506,-391.5 506,-391.5 506,-251.5 506,-231.3648 493.2957,-213.1013 479.7787,-199.3678"/>
<polygon fill="#b02222" stroke="#b02222" points="481.9203,-196.5745 472.2612,-192.2211 477.0972,-201.6478 481.9203,-196.5745"/>
<text text-anchor="middle" x="524.5" y="-325.3" font-family="Lato" font-size="14.00" fill="#b02222">Failed</text>
</g>
<!-- statusNewComplete&#45;&gt;statusNewFailed -->
<g id="edge9" class="edge">
<title>statusNewComplete&#45;&gt;statusNewFailed</title>
<path fill="none" stroke="#b02222" d="M348.1837,-310.9162C367.98,-283.762 405.5069,-232.287 428.4824,-200.7719"/>
<polygon fill="#b02222" stroke="#b02222" points="431.4872,-202.5916 434.55,-192.4491 425.8307,-198.4678 431.4872,-202.5916"/>
<text text-anchor="start" x="407" y="-255.3" font-family="Lato" font-size="14.00" fill="#b02222">Late</text>
<text text-anchor="middle" x="428.5" y="-240.3" font-family="Lato" font-size="14.00" fill="#b02222">Failure</text>
</g>
<!-- start2 -->
<g id="node11" class="node">
<title>start2</title>
<polygon fill="#ffffff" stroke="#bbbbbb" points="990,-472 732,-472 732,-436 990,-436 990,-472"/>
<text text-anchor="middle" x="861" y="-450.3" font-family="Lato" font-size="14.00" fill="#000000">Lifecycyle of a Recurring Contribution</text>
</g>
<!-- statusCrPending -->
<g id="node12" class="node">
<title>statusCrPending</title>
<polygon fill="#fbfbfb" stroke="#0284ea" points="895,-347 827,-347 827,-311 895,-311 895,-347"/>
<text text-anchor="middle" x="861" y="-325.3" font-family="Lato" font-size="14.00" fill="#0284ea">Pending</text>
</g>
<!-- start2&#45;&gt;statusCrPending -->
<g id="edge10" class="edge">
<title>start2&#45;&gt;statusCrPending</title>
<path fill="none" stroke="#22b022" d="M861,-435.8239C861,-415.2723 861,-381.5472 861,-357.4893"/>
<polygon fill="#22b022" stroke="#22b022" points="864.5001,-357.198 861,-347.198 857.5001,-357.198 864.5001,-357.198"/>
<text text-anchor="middle" x="911" y="-387.8" font-family="Lato" font-size="14.00" fill="#22b022">User starts flow</text>
</g>
<!-- statusCrIP -->
<g id="node13" class="node">
<title>statusCrIP</title>
<polygon fill="#fbfbfb" stroke="#0284ea" points="852,-192 766,-192 766,-156 852,-156 852,-192"/>
<text text-anchor="middle" x="809" y="-170.3" font-family="Lato" font-size="14.00" fill="#0284ea">In Progress</text>
</g>
<!-- statusCrPending&#45;&gt;statusCrIP -->
<g id="edge11" class="edge">
<title>statusCrPending&#45;&gt;statusCrIP</title>
<path fill="none" stroke="#22b022" d="M845.2803,-310.9056C837.3079,-300.731 828.2289,-287.4079 823,-274 814.0375,-251.0186 810.6979,-223.089 809.5076,-202.5939"/>
<polygon fill="#22b022" stroke="#22b022" points="812.9924,-202.1714 809.0539,-192.3358 805.9992,-202.4807 812.9924,-202.1714"/>
<text text-anchor="start" x="823" y="-255.3" font-family="Lato" font-size="14.00" fill="#22b022">Payment</text>
<text text-anchor="middle" x="857" y="-240.3" font-family="Lato" font-size="14.00" fill="#22b022">Confirmed</text>
</g>
<!-- statusCrFailed -->
<g id="node15" class="node">
<title>statusCrFailed</title>
<polygon fill="#fbfbfb" stroke="#0284ea" points="940,-192 886,-192 886,-156 940,-156 940,-192"/>
<text text-anchor="middle" x="913" y="-170.3" font-family="Lato" font-size="14.00" fill="#0284ea">Failed</text>
</g>
<!-- statusCrPending&#45;&gt;statusCrFailed -->
<g id="edge16" class="edge">
<title>statusCrPending&#45;&gt;statusCrFailed</title>
<path fill="none" stroke="#b02222" d="M872.637,-310.7857C878.856,-300.3602 886.1985,-286.836 891,-274 899.8038,-250.4643 905.593,-222.4299 909.0124,-202.0412"/>
<polygon fill="#b02222" stroke="#b02222" points="912.4728,-202.5663 910.5879,-192.1405 905.5598,-201.4662 912.4728,-202.5663"/>
<text text-anchor="start" x="903" y="-262.8" font-family="Lato" font-size="14.00" fill="#b02222">User</text>
<text text-anchor="start" x="903" y="-247.8" font-family="Lato" font-size="14.00" fill="#b02222">abandons</text>
<text text-anchor="middle" x="933.5" y="-232.8" font-family="Lato" font-size="14.00" fill="#b02222">process</text>
</g>
<!-- statusCrCancelled -->
<g id="node14" class="node">
<title>statusCrCancelled</title>
<polygon fill="#fbfbfb" stroke="#0284ea" points="644.5,-52 567.5,-52 567.5,-16 644.5,-16 644.5,-52"/>
<text text-anchor="middle" x="606" y="-30.3" font-family="Lato" font-size="14.00" fill="#0284ea">Cancelled</text>
</g>
<!-- statusCrIP&#45;&gt;statusCrCancelled -->
<g id="edge14" class="edge">
<title>statusCrIP&#45;&gt;statusCrCancelled</title>
<path fill="none" stroke="#b02222" d="M765.9686,-166.6898C716.9813,-157.4837 641.2408,-140.2678 622,-119 608.2733,-103.8272 604.6261,-80.7258 604.2174,-62.4343"/>
<polygon fill="#b02222" stroke="#b02222" points="607.7181,-62.3446 604.2992,-52.3166 600.7183,-62.2879 607.7181,-62.3446"/>
<text text-anchor="start" x="622" y="-107.8" font-family="Lato" font-size="14.00" fill="#b02222">Mandate/subscription</text>
<text text-anchor="middle" x="692.5" y="-92.8" font-family="Lato" font-size="14.00" fill="#b02222">cancelled</text>
</g>
<!-- statusCrOverdue -->
<g id="node16" class="node">
<title>statusCrOverdue</title>
<polygon fill="#fbfbfb" stroke="#0284ea" points="960,-52 888,-52 888,-16 960,-16 960,-52"/>
<text text-anchor="middle" x="924" y="-30.3" font-family="Lato" font-size="14.00" fill="#0284ea">Overdue</text>
</g>
<!-- statusCrIP&#45;&gt;statusCrOverdue -->
<g id="edge12" class="edge">
<title>statusCrIP&#45;&gt;statusCrOverdue</title>
<path fill="none" stroke="#b02222" d="M824.8161,-155.7923C834.0048,-145.1397 845.7548,-131.3897 856,-119 872.1009,-99.5288 889.9309,-77.2121 903.2927,-60.3326"/>
<polygon fill="#b02222" stroke="#b02222" points="906.3871,-62.0616 909.8399,-52.0452 900.8944,-57.7223 906.3871,-62.0616"/>
<text text-anchor="start" x="880" y="-107.8" font-family="Lato" font-size="14.00" fill="#b02222">Payment</text>
<text text-anchor="middle" x="908" y="-92.8" font-family="Lato" font-size="14.00" fill="#b02222">failed</text>
</g>
<!-- statusCrCompleted -->
<g id="node17" class="node">
<title>statusCrCompleted</title>
<polygon fill="#fbfbfb" stroke="#0284ea" points="805,-52 719,-52 719,-16 805,-16 805,-52"/>
<text text-anchor="middle" x="762" y="-30.3" font-family="Lato" font-size="14.00" fill="#0284ea">Completed</text>
</g>
<!-- statusCrIP&#45;&gt;statusCrCompleted -->
<g id="edge15" class="edge">
<title>statusCrIP&#45;&gt;statusCrCompleted</title>
<path fill="none" stroke="#22b022" d="M795.5222,-155.5501C788.6496,-145.2713 780.7585,-131.9622 776,-119 769.3199,-100.8033 765.8154,-79.2444 763.9831,-62.392"/>
<polygon fill="#22b022" stroke="#22b022" points="767.4337,-61.7043 763.004,-52.0799 760.465,-62.366 767.4337,-61.7043"/>
<text text-anchor="start" x="776" y="-107.8" font-family="Lato" font-size="14.00" fill="#22b022">Subscription</text>
<text text-anchor="middle" x="816" y="-92.8" font-family="Lato" font-size="14.00" fill="#22b022"> Finished</text>
</g>
<!-- statusCrOverdue&#45;&gt;statusCrIP -->
<g id="edge13" class="edge">
<title>statusCrOverdue&#45;&gt;statusCrIP</title>
<path fill="none" stroke="#22b022" d="M934.5038,-52.1107C943.6044,-70.4375 953.3832,-98.8663 940,-119 937.5558,-122.6771 896.8543,-139.4506 861.4617,-153.518"/>
<polygon fill="#22b022" stroke="#22b022" points="860.1403,-150.2768 852.1318,-157.2132 862.7179,-156.7849 860.1403,-150.2768"/>
<text text-anchor="start" x="946" y="-107.8" font-family="Lato" font-size="14.00" fill="#22b022">Payment</text>
<text text-anchor="middle" x="980" y="-92.8" font-family="Lato" font-size="14.00" fill="#22b022">Confirmed</text>
</g>
</g>
</svg>
