<?xml version="1.0" encoding="UTF-8" standalone="no"?>
<!DOCTYPE svg PUBLIC "-//W3C//DTD SVG 1.1//EN"
 "http://www.w3.org/Graphics/SVG/1.1/DTD/svg11.dtd">
<!-- Generated by graphviz version 2.40.1 (20161225.0304)
 -->
<!-- Title: A Pages: 1 -->
<svg width="1068pt" height="496pt"
 viewBox="0.00 0.00 1068.00 496.00" xmlns="http://www.w3.org/2000/svg" xmlns:xlink="http://www.w3.org/1999/xlink">
<g id="graph0" class="graph" transform="scale(1 1) rotate(0) translate(4 492)">
<title>A</title>
<polygon fill="#ffffff" stroke="transparent" points="-4,4 -4,-492 1064,-492 1064,4 -4,4"/>
<g id="clust1" class="cluster">
<title>cluster_a</title>
<polygon fill="none" stroke="#000000" points="8,-8 8,-480 286,-480 286,-8 8,-8"/>
</g>
<g id="clust2" class="cluster">
<title>cluster_c</title>
<polygon fill="none" stroke="#000000" points="294,-148 294,-480 557,-480 557,-148 294,-148"/>
</g>
<g id="clust3" class="cluster">
<title>cluster_b</title>
<polygon fill="none" stroke="#000000" points="565,-8 565,-480 1052,-480 1052,-8 565,-8"/>
</g>
<!-- start -->
<g id="node1" class="node">
<title>start</title>
<polygon fill="#ffee88" stroke="#000000" points="278,-472 74,-472 74,-436 278,-436 278,-472"/>
<text text-anchor="middle" x="176" y="-450.3" font-family="Lato" font-size="14.00" fill="#000000">Lifecycle of first Contribution</text>
</g>
<!-- statusPending -->
<g id="node2" class="node">
<title>statusPending</title>
<polygon fill="none" stroke="#0284ea" points="221,-347 153,-347 153,-311 221,-311 221,-347"/>
<text text-anchor="middle" x="187" y="-325.3" font-family="Lato" font-size="14.00" fill="#0284ea">Pending</text>
</g>
<!-- start&#45;&gt;statusPending -->
<g id="edge1" class="edge">
<title>start&#45;&gt;statusPending</title>
<path fill="none" stroke="#000000" d="M177.5995,-435.8239C179.4162,-415.1798 182.4026,-381.2431 184.5215,-357.1648"/>
<polygon fill="#000000" stroke="#000000" points="188.0084,-357.4664 185.3986,-347.198 181.0353,-356.8527 188.0084,-357.4664"/>
<text text-anchor="middle" x="232" y="-387.8" font-family="Lato" font-size="14.00" fill="#000000">User starts flow</text>
</g>
<!-- statusComplete -->
<g id="node3" class="node">
<title>statusComplete</title>
<polygon fill="none" stroke="#0284ea" points="102,-192 24,-192 24,-156 102,-156 102,-192"/>
<text text-anchor="middle" x="63" y="-170.3" font-family="Lato" font-size="14.00" fill="#0284ea">Complete</text>
</g>
<!-- statusPending&#45;&gt;statusComplete -->
<g id="edge2" class="edge">
<title>statusPending&#45;&gt;statusComplete</title>
<path fill="none" stroke="#000000" d="M152.9628,-320.8374C114.3255,-310.8019 54.9615,-292.7791 42,-274 27.1652,-252.5069 36.3367,-222.6642 46.8102,-201.1825"/>
<polygon fill="#000000" stroke="#000000" points="49.9484,-202.7339 51.4718,-192.2492 43.7425,-199.4955 49.9484,-202.7339"/>
<text text-anchor="middle" x="105.5" y="-247.8" font-family="Lato" font-size="14.00" fill="#000000">Payment Confirmed</text>
</g>
<!-- statusCancelled -->
<g id="node4" class="node">
<title>statusCancelled</title>
<polygon fill="none" stroke="#0284ea" points="204.5,-192 127.5,-192 127.5,-156 204.5,-156 204.5,-192"/>
<text text-anchor="middle" x="166" y="-170.3" font-family="Lato" font-size="14.00" fill="#0284ea">Cancelled</text>
</g>
<!-- statusPending&#45;&gt;statusCancelled -->
<g id="edge4" class="edge">
<title>statusPending&#45;&gt;statusCancelled</title>
<path fill="none" stroke="#000000" d="M184.5499,-310.9162C180.9339,-284.2261 174.1344,-234.0397 169.8485,-202.4053"/>
<polygon fill="#000000" stroke="#000000" points="173.3105,-201.8886 168.4996,-192.4491 166.3739,-202.8285 173.3105,-201.8886"/>
<text text-anchor="middle" x="209.5" y="-247.8" font-family="Lato" font-size="14.00" fill="#000000">Cancelled</text>
</g>
<!-- statusFailed -->
<g id="node5" class="node">
<title>statusFailed</title>
<polygon fill="none" stroke="#0284ea" points="179,-52 125,-52 125,-16 179,-16 179,-52"/>
<text text-anchor="middle" x="152" y="-30.3" font-family="Lato" font-size="14.00" fill="#0284ea">Failed</text>
</g>
<!-- statusPending&#45;&gt;statusFailed -->
<g id="edge5" class="edge">
<title>statusPending&#45;&gt;statusFailed</title>
<path fill="none" stroke="#000000" d="M213.9012,-310.8174C225.4762,-301.3516 237.7642,-288.6824 244,-274 251.8183,-255.5915 247.4757,-248.6957 244,-229 232.4915,-163.7854 224.4556,-147.2746 193,-89 187.684,-79.1517 180.7465,-69.1228 174.094,-60.3728"/>
<polygon fill="#000000" stroke="#000000" points="176.7881,-58.1362 167.8655,-52.4232 171.2779,-62.4534 176.7881,-58.1362"/>
<text text-anchor="middle" x="254.5" y="-170.3" font-family="Lato" font-size="14.00" fill="#000000">Failed</text>
</g>
<!-- statusComplete&#45;&gt;statusFailed -->
<g id="edge3" class="edge">
<title>statusComplete&#45;&gt;statusFailed</title>
<path fill="none" stroke="#000000" d="M74.453,-155.9841C89.7886,-131.8607 117.12,-88.8675 134.8989,-60.9006"/>
<polygon fill="#000000" stroke="#000000" points="137.8971,-62.7082 140.3084,-52.3914 131.9898,-58.9528 137.8971,-62.7082"/>
<text text-anchor="middle" x="152.5" y="-100.3" font-family="Lato" font-size="14.00" fill="#000000">Late Failure</text>
</g>
<!-- startNew -->
<g id="node6" class="node">
<title>startNew</title>
<polygon fill="#ffee88" stroke="#000000" points="538,-472 326,-472 326,-436 538,-436 538,-472"/>
<text text-anchor="middle" x="432" y="-450.3" font-family="Lato" font-size="14.00" fill="#000000">Lifecycle of new Contributions</text>
</g>
<!-- statusNewComplete -->
<g id="node7" class="node">
<title>statusNewComplete</title>
<polygon fill="none" stroke="#0284ea" points="380,-347 302,-347 302,-311 380,-311 380,-347"/>
<text text-anchor="middle" x="341" y="-325.3" font-family="Lato" font-size="14.00" fill="#0284ea">Complete</text>
</g>
<!-- startNew&#45;&gt;statusNewComplete -->
<g id="edge6" class="edge">
<title>startNew&#45;&gt;statusNewComplete</title>
<path fill="none" stroke="#000000" d="M401.1504,-435.9369C387.4145,-426.4972 372.0955,-413.8155 362,-399 353.6,-386.6727 348.4863,-370.9039 345.412,-357.4548"/>
<polygon fill="#000000" stroke="#000000" points="348.7673,-356.3873 343.36,-347.2762 341.9054,-357.7707 348.7673,-356.3873"/>
<text text-anchor="middle" x="396" y="-387.8" font-family="Lato" font-size="14.00" fill="#000000">Confirmed</text>
</g>
<!-- statusNewCancelled -->
<g id="node8" class="node">
<title>statusNewCancelled</title>
<polygon fill="none" stroke="#0284ea" points="475.5,-347 398.5,-347 398.5,-311 475.5,-311 475.5,-347"/>
<text text-anchor="middle" x="437" y="-325.3" font-family="Lato" font-size="14.00" fill="#0284ea">Cancelled</text>
</g>
<!-- startNew&#45;&gt;statusNewCancelled -->
<g id="edge8" class="edge">
<title>startNew&#45;&gt;statusNewCancelled</title>
<path fill="none" stroke="#000000" d="M432.727,-435.8239C433.5491,-415.2723 434.8981,-381.5472 435.8604,-357.4893"/>
<polygon fill="#000000" stroke="#000000" points="439.3695,-357.3299 436.2721,-347.198 432.3751,-357.0501 439.3695,-357.3299"/>
<text text-anchor="middle" x="464.5" y="-387.8" font-family="Lato" font-size="14.00" fill="#000000">Cancelled</text>
</g>
<!-- statusNewFailed -->
<g id="node9" class="node">
<title>statusNewFailed</title>
<polygon fill="none" stroke="#0284ea" points="454,-192 400,-192 400,-156 454,-156 454,-192"/>
<text text-anchor="middle" x="427" y="-170.3" font-family="Lato" font-size="14.00" fill="#0284ea">Failed</text>
</g>
<!-- startNew&#45;&gt;statusNewFailed -->
<g id="edge7" class="edge">
<title>startNew&#45;&gt;statusNewFailed</title>
<path fill="none" stroke="#000000" d="M478.9991,-435.9251C496.4128,-425.9276 512,-411.4162 512,-391.5 512,-391.5 512,-391.5 512,-251.5 512,-223.4687 486.4453,-202.8772 463.3597,-189.9943"/>
<polygon fill="#000000" stroke="#000000" points="464.8435,-186.8203 454.3624,-185.2721 461.5904,-193.0185 464.8435,-186.8203"/>
<text text-anchor="middle" x="530.5" y="-325.3" font-family="Lato" font-size="14.00" fill="#000000">Failed</text>
</g>
<!-- statusNewComplete&#45;&gt;statusNewFailed -->
<g id="edge9" class="edge">
<title>statusNewComplete&#45;&gt;statusNewFailed</title>
<path fill="none" stroke="#000000" d="M351.0336,-310.9162C365.971,-283.994 394.1729,-233.1651 411.6952,-201.5843"/>
<polygon fill="#000000" stroke="#000000" points="414.9725,-202.8914 416.7637,-192.4491 408.8516,-199.4952 414.9725,-202.8914"/>
<text text-anchor="middle" x="432.5" y="-247.8" font-family="Lato" font-size="14.00" fill="#000000">Late Failure</text>
</g>
<!-- start2 -->
<g id="node10" class="node">
<title>start2</title>
<polygon fill="#ffee88" stroke="#000000" points="996,-472 738,-472 738,-436 996,-436 996,-472"/>
<text text-anchor="middle" x="867" y="-450.3" font-family="Lato" font-size="14.00" fill="#000000">Lifecycyle of a Recurring Contribution</text>
</g>
<!-- statusCrPending -->
<g id="node11" class="node">
<title>statusCrPending</title>
<polygon fill="none" stroke="#0284ea" points="901,-347 833,-347 833,-311 901,-311 901,-347"/>
<text text-anchor="middle" x="867" y="-325.3" font-family="Lato" font-size="14.00" fill="#0284ea">Pending</text>
</g>
<!-- start2&#45;&gt;statusCrPending -->
<g id="edge10" class="edge">
<title>start2&#45;&gt;statusCrPending</title>
<path fill="none" stroke="#000000" d="M867,-435.8239C867,-415.2723 867,-381.5472 867,-357.4893"/>
<polygon fill="#000000" stroke="#000000" points="870.5001,-357.198 867,-347.198 863.5001,-357.198 870.5001,-357.198"/>
<text text-anchor="middle" x="917" y="-387.8" font-family="Lato" font-size="14.00" fill="#000000">User starts flow</text>
</g>
<!-- statusCrIP -->
<g id="node12" class="node">
<title>statusCrIP</title>
<polygon fill="none" stroke="#0284ea" points="858,-192 772,-192 772,-156 858,-156 858,-192"/>
<text text-anchor="middle" x="815" y="-170.3" font-family="Lato" font-size="14.00" fill="#0284ea">In Progress</text>
</g>
<!-- statusCrPending&#45;&gt;statusCrIP -->
<g id="edge11" class="edge">
<title>statusCrPending&#45;&gt;statusCrIP</title>
<path fill="none" stroke="#000000" d="M851.2803,-310.9056C843.3079,-300.731 834.2289,-287.4079 829,-274 820.0375,-251.0186 816.6979,-223.089 815.5076,-202.5939"/>
<polygon fill="#000000" stroke="#000000" points="818.9924,-202.1714 815.0539,-192.3358 811.9992,-202.4807 818.9924,-202.1714"/>
<text text-anchor="start" x="829" y="-255.3" font-family="Lato" font-size="14.00" fill="#000000">Payment</text>
<text text-anchor="middle" x="863" y="-240.3" font-family="Lato" font-size="14.00" fill="#000000">Confirmed</text>
</g>
<!-- statusCrFailed -->
<g id="node14" class="node">
<title>statusCrFailed</title>
<polygon fill="none" stroke="#0284ea" points="946,-192 892,-192 892,-156 946,-156 946,-192"/>
<text text-anchor="middle" x="919" y="-170.3" font-family="Lato" font-size="14.00" fill="#0284ea">Failed</text>
</g>
<!-- statusCrPending&#45;&gt;statusCrFailed -->
<g id="edge16" class="edge">
<title>statusCrPending&#45;&gt;statusCrFailed</title>
<path fill="none" stroke="#000000" d="M878.637,-310.7857C884.856,-300.3602 892.1985,-286.836 897,-274 905.8038,-250.4643 911.593,-222.4299 915.0124,-202.0412"/>
<polygon fill="#000000" stroke="#000000" points="918.4728,-202.5663 916.5879,-192.1405 911.5598,-201.4662 918.4728,-202.5663"/>
<text text-anchor="start" x="909" y="-262.8" font-family="Lato" font-size="14.00" fill="#000000">User</text>
<text text-anchor="start" x="909" y="-247.8" font-family="Lato" font-size="14.00" fill="#000000">abandons</text>
<text text-anchor="middle" x="939.5" y="-232.8" font-family="Lato" font-size="14.00" fill="#000000">process</text>
</g>
<!-- statusCrCancelled -->
<g id="node13" class="node">
<title>statusCrCancelled</title>
<polygon fill="none" stroke="#0284ea" points="650.5,-52 573.5,-52 573.5,-16 650.5,-16 650.5,-52"/>
<text text-anchor="middle" x="612" y="-30.3" font-family="Lato" font-size="14.00" fill="#0284ea">Cancelled</text>
</g>
<!-- statusCrIP&#45;&gt;statusCrCancelled -->
<g id="edge14" class="edge">
<title>statusCrIP&#45;&gt;statusCrCancelled</title>
<path fill="none" stroke="#000000" d="M771.9686,-166.6898C722.9813,-157.4837 647.2408,-140.2678 628,-119 614.2733,-103.8272 610.6261,-80.7258 610.2174,-62.4343"/>
<polygon fill="#000000" stroke="#000000" points="613.7181,-62.3446 610.2992,-52.3166 606.7183,-62.2879 613.7181,-62.3446"/>
<text text-anchor="start" x="628" y="-107.8" font-family="Lato" font-size="14.00" fill="#000000">Mandate/subscription</text>
<text text-anchor="middle" x="698.5" y="-92.8" font-family="Lato" font-size="14.00" fill="#000000">cancelled</text>
</g>
<!-- statusCrOverdue -->
<g id="node15" class="node">
<title>statusCrOverdue</title>
<polygon fill="none" stroke="#0284ea" points="966,-52 894,-52 894,-16 966,-16 966,-52"/>
<text text-anchor="middle" x="930" y="-30.3" font-family="Lato" font-size="14.00" fill="#0284ea">Overdue</text>
</g>
<!-- statusCrIP&#45;&gt;statusCrOverdue -->
<g id="edge12" class="edge">
<title>statusCrIP&#45;&gt;statusCrOverdue</title>
<path fill="none" stroke="#000000" d="M830.8161,-155.7923C840.0048,-145.1397 851.7548,-131.3897 862,-119 878.1009,-99.5288 895.9309,-77.2121 909.2927,-60.3326"/>
<polygon fill="#000000" stroke="#000000" points="912.3871,-62.0616 915.8399,-52.0452 906.8944,-57.7223 912.3871,-62.0616"/>
<text text-anchor="start" x="886" y="-107.8" font-family="Lato" font-size="14.00" fill="#000000">Payment</text>
<text text-anchor="middle" x="914" y="-92.8" font-family="Lato" font-size="14.00" fill="#000000">failed</text>
</g>
<!-- statusCrCompleted -->
<g id="node16" class="node">
<title>statusCrCompleted</title>
<polygon fill="none" stroke="#0284ea" points="811,-52 725,-52 725,-16 811,-16 811,-52"/>
<text text-anchor="middle" x="768" y="-30.3" font-family="Lato" font-size="14.00" fill="#0284ea">Completed</text>
</g>
<!-- statusCrIP&#45;&gt;statusCrCompleted -->
<g id="edge15" class="edge">
<title>statusCrIP&#45;&gt;statusCrCompleted</title>
<path fill="none" stroke="#000000" d="M801.5222,-155.5501C794.6496,-145.2713 786.7585,-131.9622 782,-119 775.3199,-100.8033 771.8154,-79.2444 769.9831,-62.392"/>
<polygon fill="#000000" stroke="#000000" points="773.4337,-61.7043 769.004,-52.0799 766.465,-62.366 773.4337,-61.7043"/>
<text text-anchor="start" x="782" y="-107.8" font-family="Lato" font-size="14.00" fill="#000000">Subscription</text>
<text text-anchor="middle" x="822" y="-92.8" font-family="Lato" font-size="14.00" fill="#000000"> Finished</text>
</g>
<!-- statusCrOverdue&#45;&gt;statusCrIP -->
<g id="edge13" class="edge">
<title>statusCrOverdue&#45;&gt;statusCrIP</title>
<path fill="none" stroke="#000000" d="M940.5038,-52.1107C949.6044,-70.4375 959.3832,-98.8663 946,-119 943.5558,-122.6771 902.8543,-139.4506 867.4617,-153.518"/>
<polygon fill="#000000" stroke="#000000" points="866.1403,-150.2768 858.1318,-157.2132 868.7179,-156.7849 866.1403,-150.2768"/>
<text text-anchor="start" x="952" y="-107.8" font-family="Lato" font-size="14.00" fill="#000000">Payment</text>
<text text-anchor="middle" x="986" y="-92.8" font-family="Lato" font-size="14.00" fill="#000000">Confirmed</text>
</g>
</g>
</svg>
