<?xml version="1.0" encoding="UTF-8" standalone="no"?>
<!DOCTYPE svg PUBLIC "-//W3C//DTD SVG 1.1//EN"
 "http://www.w3.org/Graphics/SVG/1.1/DTD/svg11.dtd">
<!-- Generated by graphviz version 2.40.1 (20161225.0304)
 -->
<!-- Title: A Pages: 1 -->
<svg width="1075pt" height="511pt"
 viewBox="0.00 0.00 1075.00 511.00" xmlns="http://www.w3.org/2000/svg" xmlns:xlink="http://www.w3.org/1999/xlink">
<g id="graph0" class="graph" transform="scale(1 1) rotate(0) translate(4 507)">
<title>A</title>
<polygon fill="#f3f4f6" stroke="transparent" points="-4,4 -4,-507 1071,-507 1071,4 -4,4"/>
<g id="clust1" class="cluster">
<title>cluster_a</title>
<polygon fill="#f3f4f6" stroke="#f3f4f6" points="8,-8 8,-495 293,-495 293,-8 8,-8"/>
</g>
<g id="clust2" class="cluster">
<title>cluster_c</title>
<polygon fill="#f3f4f6" stroke="#f3f4f6" points="301,-148 301,-495 564,-495 564,-148 301,-148"/>
</g>
<g id="clust3" class="cluster">
<title>cluster_b</title>
<polygon fill="#f3f4f6" stroke="#f3f4f6" points="572,-8 572,-495 1059,-495 1059,-8 572,-8"/>
</g>
<!-- start -->
<g id="node1" class="node">
<title>start</title>
<polygon fill="#ffffff" stroke="#bbbbbb" points="244,-487 32,-487 32,-451 244,-451 244,-487"/>
<text text-anchor="middle" x="138" y="-465.3" font-family="Lato" font-size="14.00" fill="#000000"> Lifecycle of first Contribution </text>
</g>
<!-- statusPending -->
<g id="node2" class="node">
<title>statusPending</title>
<polygon fill="#fbfbfb" stroke="#0284ea" points="172,-362 104,-362 104,-326 172,-326 172,-362"/>
<text text-anchor="middle" x="138" y="-340.3" font-family="Lato" font-size="14.00" fill="#0284ea">Pending</text>
</g>
<!-- start&#45;&gt;statusPending -->
<g id="edge1" class="edge">
<title>start&#45;&gt;statusPending</title>
<path fill="none" stroke="#22b022" d="M138,-450.8239C138,-430.2723 138,-396.5472 138,-372.4893"/>
<polygon fill="#22b022" stroke="#22b022" points="141.5001,-372.198 138,-362.198 134.5001,-372.198 141.5001,-372.198"/>
<text text-anchor="middle" x="188" y="-402.8" font-family="Lato" font-size="14.00" fill="#22b022">User starts flow</text>
</g>
<!-- statusComplete -->
<g id="node3" class="node">
<title>statusComplete</title>
<polygon fill="#fbfbfb" stroke="#0284ea" points="94,-192 16,-192 16,-156 94,-156 94,-192"/>
<text text-anchor="middle" x="55" y="-170.3" font-family="Lato" font-size="14.00" fill="#0284ea">Complete</text>
</g>
<!-- statusPending&#45;&gt;statusComplete -->
<g id="edge2" class="edge">
<title>statusPending&#45;&gt;statusComplete</title>
<path fill="none" stroke="#22b022" d="M106.2467,-325.9488C92.8623,-316.6639 78.4531,-304.1051 70,-289 55.0109,-262.2157 52.5542,-226.5523 53.0195,-202.0818"/>
<polygon fill="#22b022" stroke="#22b022" points="56.5196,-202.1397 53.3868,-192.0186 49.5242,-201.8842 56.5196,-202.1397"/>
<text text-anchor="start" x="70" y="-262.8" font-family="Lato" font-size="14.00" fill="#22b022">Payment</text>
<text text-anchor="middle" x="104" y="-247.8" font-family="Lato" font-size="14.00" fill="#22b022">Confirmed</text>
</g>
<!-- statusCancelled -->
<g id="node4" class="node">
<title>statusCancelled</title>
<polygon fill="#fbfbfb" stroke="#0284ea" points="189.5,-192 112.5,-192 112.5,-156 189.5,-156 189.5,-192"/>
<text text-anchor="middle" x="151" y="-170.3" font-family="Lato" font-size="14.00" fill="#0284ea">Cancelled</text>
</g>
<!-- statusPending&#45;&gt;statusCancelled -->
<g id="edge4" class="edge">
<title>statusPending&#45;&gt;statusCancelled</title>
<path fill="none" stroke="#b02222" d="M139.3912,-325.807C141.6588,-296.1543 146.1672,-237.1984 148.8495,-202.1223"/>
<polygon fill="#b02222" stroke="#b02222" points="152.346,-202.3 149.6188,-192.0622 145.3664,-201.7662 152.346,-202.3"/>
<text text-anchor="start" x="146" y="-277.8" font-family="Lato" font-size="14.00" fill="#b02222">Cancelled</text>
<text text-anchor="start" x="146" y="-262.8" font-family="Lato" font-size="14.00" fill="#b02222">or</text>
<text text-anchor="start" x="146" y="-247.8" font-family="Lato" font-size="14.00" fill="#b02222">Abandoned</text>
<text text-anchor="middle" x="183" y="-232.8" font-family="Lato" font-size="14.00" fill="#b02222">mandate</text>
</g>
<!-- statusFailed -->
<g id="node5" class="node">
<title>statusFailed</title>
<polygon fill="#fbfbfb" stroke="#0284ea" points="275,-192 221,-192 221,-156 275,-156 275,-192"/>
<text text-anchor="middle" x="248" y="-170.3" font-family="Lato" font-size="14.00" fill="#0284ea">Failed</text>
</g>
<!-- statusPending&#45;&gt;statusFailed -->
<g id="edge5" class="edge">
<title>statusPending&#45;&gt;statusFailed</title>
<path fill="none" stroke="#b02222" d="M172.1995,-330.0767C190.2901,-320.9935 211.3216,-307.3826 224,-289 241.753,-263.2597 246.85,-227.1048 248.0825,-202.2412"/>
<polygon fill="#b02222" stroke="#b02222" points="251.588,-202.1205 248.4043,-192.0153 244.5914,-201.9002 251.588,-202.1205"/>
<text text-anchor="middle" x="263.5" y="-255.3" font-family="Lato" font-size="14.00" fill="#b02222">Failed</text>
</g>
<!-- statusRefunded -->
<g id="node6" class="node">
<title>statusRefunded</title>
<polygon fill="#fbfbfb" stroke="#0284ea" points="94,-52 16,-52 16,-16 94,-16 94,-52"/>
<text text-anchor="middle" x="55" y="-30.3" font-family="Lato" font-size="14.00" fill="#0284ea">Refunded</text>
</g>
<!-- statusComplete&#45;&gt;statusRefunded -->
<g id="edge3" class="edge">
<title>statusComplete&#45;&gt;statusRefunded</title>
<path fill="none" stroke="#b02222" d="M55,-155.9841C55,-132.3829 55,-90.7198 55,-62.7374"/>
<polygon fill="#b02222" stroke="#b02222" points="58.5001,-62.3913 55,-52.3914 51.5001,-62.3914 58.5001,-62.3913"/>
<text text-anchor="start" x="55" y="-107.8" font-family="Lato" font-size="14.00" fill="#b02222">Late</text>
<text text-anchor="middle" x="76.5" y="-92.8" font-family="Lato" font-size="14.00" fill="#b02222">Failure</text>
</g>
<!-- startNew -->
<g id="node7" class="node">
<title>startNew</title>
<polygon fill="#ffffff" stroke="#bbbbbb" points="545,-487 333,-487 333,-451 545,-451 545,-487"/>
<text text-anchor="middle" x="439" y="-465.3" font-family="Lato" font-size="14.00" fill="#000000">Lifecycle of new Contributions</text>
</g>
<!-- statusNewComplete -->
<g id="node8" class="node">
<title>statusNewComplete</title>
<polygon fill="#fbfbfb" stroke="#0284ea" points="387,-362 309,-362 309,-326 387,-326 387,-362"/>
<text text-anchor="middle" x="348" y="-340.3" font-family="Lato" font-size="14.00" fill="#0284ea">Complete</text>
</g>
<!-- startNew&#45;&gt;statusNewComplete -->
<g id="edge6" class="edge">
<title>startNew&#45;&gt;statusNewComplete</title>
<path fill="none" stroke="#22b022" d="M408.1504,-450.9369C394.4145,-441.4972 379.0955,-428.8155 369,-414 360.6,-401.6727 355.4863,-385.9039 352.412,-372.4548"/>
<polygon fill="#22b022" stroke="#22b022" points="355.7673,-371.3873 350.36,-362.2762 348.9054,-372.7707 355.7673,-371.3873"/>
<text text-anchor="middle" x="403" y="-402.8" font-family="Lato" font-size="14.00" fill="#22b022">Confirmed</text>
</g>
<!-- statusNewCancelled -->
<g id="node9" class="node">
<title>statusNewCancelled</title>
<polygon fill="#fbfbfb" stroke="#0284ea" points="482.5,-362 405.5,-362 405.5,-326 482.5,-326 482.5,-362"/>
<text text-anchor="middle" x="444" y="-340.3" font-family="Lato" font-size="14.00" fill="#0284ea">Cancelled</text>
</g>
<!-- startNew&#45;&gt;statusNewCancelled -->
<g id="edge8" class="edge">
<title>startNew&#45;&gt;statusNewCancelled</title>
<path fill="none" stroke="#b02222" d="M439.727,-450.8239C440.5491,-430.2723 441.8981,-396.5472 442.8604,-372.4893"/>
<polygon fill="#b02222" stroke="#b02222" points="446.3695,-372.3299 443.2721,-362.198 439.3751,-372.0501 446.3695,-372.3299"/>
<text text-anchor="middle" x="471.5" y="-402.8" font-family="Lato" font-size="14.00" fill="#b02222">Cancelled</text>
</g>
<!-- statusNewFailed -->
<g id="node10" class="node">
<title>statusNewFailed</title>
<polygon fill="#fbfbfb" stroke="#0284ea" points="488,-192 434,-192 434,-156 488,-156 488,-192"/>
<text text-anchor="middle" x="461" y="-170.3" font-family="Lato" font-size="14.00" fill="#0284ea">Failed</text>
</g>
<!-- startNew&#45;&gt;statusNewFailed -->
<g id="edge7" class="edge">
<title>startNew&#45;&gt;statusNewFailed</title>
<path fill="none" stroke="#b02222" d="M485.9991,-450.9251C503.4128,-440.9276 519,-426.4162 519,-406.5 519,-406.5 519,-406.5 519,-259 519,-236.1243 504.4894,-214.8671 489.9841,-199.3325"/>
<polygon fill="#b02222" stroke="#b02222" points="492.4434,-196.8417 482.9273,-192.184 487.4618,-201.7595 492.4434,-196.8417"/>
<text text-anchor="middle" x="537.5" y="-340.3" font-family="Lato" font-size="14.00" fill="#b02222">Failed</text>
</g>
<!-- statusNewComplete&#45;&gt;statusNewFailed -->
<g id="edge9" class="edge">
<title>statusNewComplete&#45;&gt;statusNewFailed</title>
<path fill="none" stroke="#b02222" d="M360.093,-325.807C380.0582,-295.7709 420.0084,-235.6688 443.2034,-200.7737"/>
<polygon fill="#b02222" stroke="#b02222" points="446.3731,-202.3277 448.994,-192.0622 440.5434,-198.4527 446.3731,-202.3277"/>
<text text-anchor="start" x="423" y="-262.8" font-family="Lato" font-size="14.00" fill="#b02222">Late</text>
<text text-anchor="middle" x="444.5" y="-247.8" font-family="Lato" font-size="14.00" fill="#b02222">Failure</text>
</g>
<!-- start2 -->
<g id="node11" class="node">
<title>start2</title>
<polygon fill="#ffffff" stroke="#bbbbbb" points="1003,-487 745,-487 745,-451 1003,-451 1003,-487"/>
<text text-anchor="middle" x="874" y="-465.3" font-family="Lato" font-size="14.00" fill="#000000">Lifecycyle of a Recurring Contribution</text>
</g>
<!-- statusCrPending -->
<g id="node12" class="node">
<title>statusCrPending</title>
<polygon fill="#fbfbfb" stroke="#0284ea" points="908,-362 840,-362 840,-326 908,-326 908,-362"/>
<text text-anchor="middle" x="874" y="-340.3" font-family="Lato" font-size="14.00" fill="#0284ea">Pending</text>
</g>
<!-- start2&#45;&gt;statusCrPending -->
<g id="edge10" class="edge">
<title>start2&#45;&gt;statusCrPending</title>
<path fill="none" stroke="#22b022" d="M874,-450.8239C874,-430.2723 874,-396.5472 874,-372.4893"/>
<polygon fill="#22b022" stroke="#22b022" points="877.5001,-372.198 874,-362.198 870.5001,-372.198 877.5001,-372.198"/>
<text text-anchor="middle" x="924" y="-402.8" font-family="Lato" font-size="14.00" fill="#22b022">User starts flow</text>
</g>
<!-- statusCrIP -->
<g id="node13" class="node">
<title>statusCrIP</title>
<polygon fill="#fbfbfb" stroke="#0284ea" points="865,-192 779,-192 779,-156 865,-156 865,-192"/>
<text text-anchor="middle" x="822" y="-170.3" font-family="Lato" font-size="14.00" fill="#0284ea">In Progress</text>
</g>
<!-- statusCrPending&#45;&gt;statusCrIP -->
<g id="edge11" class="edge">
<title>statusCrPending&#45;&gt;statusCrIP</title>
<path fill="none" stroke="#22b022" d="M858.1841,-325.9426C850.1835,-315.7788 841.1084,-302.4543 836,-289 825.2895,-260.7911 822.3243,-226.1502 821.7048,-202.3038"/>
<polygon fill="#22b022" stroke="#22b022" points="825.2027,-202.1198 821.5658,-192.1688 818.2034,-202.2159 825.2027,-202.1198"/>
<text text-anchor="start" x="836" y="-262.8" font-family="Lato" font-size="14.00" fill="#22b022">Payment</text>
<text text-anchor="middle" x="870" y="-247.8" font-family="Lato" font-size="14.00" fill="#22b022">Confirmed</text>
</g>
<!-- statusCrFailed -->
<g id="node15" class="node">
<title>statusCrFailed</title>
<polygon fill="#fbfbfb" stroke="#0284ea" points="953,-192 899,-192 899,-156 953,-156 953,-192"/>
<text text-anchor="middle" x="926" y="-170.3" font-family="Lato" font-size="14.00" fill="#0284ea">Failed</text>
</g>
<!-- statusCrPending&#45;&gt;statusCrFailed -->
<g id="edge16" class="edge">
<title>statusCrPending&#45;&gt;statusCrFailed</title>
<path fill="none" stroke="#b02222" d="M885.7741,-325.8359C892.036,-315.4261 899.3757,-301.9009 904,-289 914.2307,-260.4587 920.0081,-226.1369 923.0485,-202.4595"/>
<polygon fill="#b02222" stroke="#b02222" points="926.5405,-202.735 924.259,-192.3887 919.5905,-201.8995 926.5405,-202.735"/>
<text text-anchor="start" x="919" y="-270.3" font-family="Lato" font-size="14.00" fill="#b02222">User</text>
<text text-anchor="start" x="919" y="-255.3" font-family="Lato" font-size="14.00" fill="#b02222">abandons</text>
<text text-anchor="middle" x="949.5" y="-240.3" font-family="Lato" font-size="14.00" fill="#b02222">process</text>
</g>
<!-- statusCrCancelled -->
<g id="node14" class="node">
<title>statusCrCancelled</title>
<polygon fill="#fbfbfb" stroke="#0284ea" points="657.5,-52 580.5,-52 580.5,-16 657.5,-16 657.5,-52"/>
<text text-anchor="middle" x="619" y="-30.3" font-family="Lato" font-size="14.00" fill="#0284ea">Cancelled</text>
</g>
<!-- statusCrIP&#45;&gt;statusCrCancelled -->
<g id="edge14" class="edge">
<title>statusCrIP&#45;&gt;statusCrCancelled</title>
<path fill="none" stroke="#b02222" d="M778.9686,-166.6898C729.9813,-157.4837 654.2408,-140.2678 635,-119 621.2733,-103.8272 617.6261,-80.7258 617.2174,-62.4343"/>
<polygon fill="#b02222" stroke="#b02222" points="620.7181,-62.3446 617.2992,-52.3166 613.7183,-62.2879 620.7181,-62.3446"/>
<text text-anchor="start" x="635" y="-107.8" font-family="Lato" font-size="14.00" fill="#b02222">Mandate/subscription</text>
<text text-anchor="middle" x="705.5" y="-92.8" font-family="Lato" font-size="14.00" fill="#b02222">cancelled</text>
</g>
<!-- statusCrOverdue -->
<g id="node16" class="node">
<title>statusCrOverdue</title>
<polygon fill="#fbfbfb" stroke="#0284ea" points="973,-52 901,-52 901,-16 973,-16 973,-52"/>
<text text-anchor="middle" x="937" y="-30.3" font-family="Lato" font-size="14.00" fill="#0284ea">Overdue</text>
</g>
<!-- statusCrIP&#45;&gt;statusCrOverdue -->
<g id="edge12" class="edge">
<title>statusCrIP&#45;&gt;statusCrOverdue</title>
<path fill="none" stroke="#b02222" d="M837.8161,-155.7923C847.0048,-145.1397 858.7548,-131.3897 869,-119 885.1009,-99.5288 902.9309,-77.2121 916.2927,-60.3326"/>
<polygon fill="#b02222" stroke="#b02222" points="919.3871,-62.0616 922.8399,-52.0452 913.8944,-57.7223 919.3871,-62.0616"/>
<text text-anchor="start" x="893" y="-107.8" font-family="Lato" font-size="14.00" fill="#b02222">Payment</text>
<text text-anchor="middle" x="921" y="-92.8" font-family="Lato" font-size="14.00" fill="#b02222">failed</text>
</g>
<!-- statusCrCompleted -->
<g id="node17" class="node">
<title>statusCrCompleted</title>
<polygon fill="#fbfbfb" stroke="#0284ea" points="818,-52 732,-52 732,-16 818,-16 818,-52"/>
<text text-anchor="middle" x="775" y="-30.3" font-family="Lato" font-size="14.00" fill="#0284ea">Completed</text>
</g>
<!-- statusCrIP&#45;&gt;statusCrCompleted -->
<g id="edge15" class="edge">
<title>statusCrIP&#45;&gt;statusCrCompleted</title>
<path fill="none" stroke="#22b022" d="M808.5222,-155.5501C801.6496,-145.2713 793.7585,-131.9622 789,-119 782.3199,-100.8033 778.8154,-79.2444 776.9831,-62.392"/>
<polygon fill="#22b022" stroke="#22b022" points="780.4337,-61.7043 776.004,-52.0799 773.465,-62.366 780.4337,-61.7043"/>
<text text-anchor="start" x="789" y="-107.8" font-family="Lato" font-size="14.00" fill="#22b022">Subscription</text>
<text text-anchor="middle" x="829" y="-92.8" font-family="Lato" font-size="14.00" fill="#22b022"> Finished</text>
</g>
<!-- statusCrOverdue&#45;&gt;statusCrIP -->
<g id="edge13" class="edge">
<title>statusCrOverdue&#45;&gt;statusCrIP</title>
<path fill="none" stroke="#22b022" d="M947.5038,-52.1107C956.6044,-70.4375 966.3832,-98.8663 953,-119 950.5558,-122.6771 909.8543,-139.4506 874.4617,-153.518"/>
<polygon fill="#22b022" stroke="#22b022" points="873.1403,-150.2768 865.1318,-157.2132 875.7179,-156.7849 873.1403,-150.2768"/>
<text text-anchor="start" x="959" y="-107.8" font-family="Lato" font-size="14.00" fill="#22b022">Payment</text>
<text text-anchor="middle" x="993" y="-92.8" font-family="Lato" font-size="14.00" fill="#22b022">Confirmed</text>
</g>
</g>
</svg>
