<?xml version="1.0" encoding="UTF-8" standalone="no"?>
<!DOCTYPE svg PUBLIC "-//W3C//DTD SVG 1.1//EN"
 "http://www.w3.org/Graphics/SVG/1.1/DTD/svg11.dtd">
<!-- Generated by graphviz version 2.40.1 (20161225.0304)
 -->
<!-- Title: A Pages: 1 -->
<svg width="1087pt" height="511pt"
 viewBox="0.00 0.00 1087.00 511.00" xmlns="http://www.w3.org/2000/svg" xmlns:xlink="http://www.w3.org/1999/xlink">
<g id="graph0" class="graph" transform="scale(1 1) rotate(0) translate(4 507)">
<title>A</title>
<polygon fill="#f3f4f6" stroke="transparent" points="-4,4 -4,-507 1083,-507 1083,4 -4,4"/>
<g id="clust1" class="cluster">
<title>cluster_a</title>
<polygon fill="#f3f4f6" stroke="#f3f4f6" points="8,-8 8,-495 298,-495 298,-8 8,-8"/>
</g>
<g id="clust2" class="cluster">
<title>cluster_c</title>
<polygon fill="#f3f4f6" stroke="#f3f4f6" points="306,-148 306,-495 574,-495 574,-148 306,-148"/>
</g>
<g id="clust3" class="cluster">
<title>cluster_b</title>
<polygon fill="#f3f4f6" stroke="#f3f4f6" points="582,-8 582,-495 1071,-495 1071,-8 582,-8"/>
</g>
<!-- start -->
<g id="node1" class="node">
<title>start</title>
<polygon fill="#ffffff" stroke="#bbbbbb" points="243.5,-487 34.5,-487 34.5,-451 243.5,-451 243.5,-487"/>
<text text-anchor="middle" x="139" y="-465.3" font-family="Lato" font-size="14.00" fill="#000000"> Lifecycle of first Contribution </text>
</g>
<!-- statusPending -->
<g id="node2" class="node">
<title>statusPending</title>
<polygon fill="#fbfbfb" stroke="#0284ea" points="173.5,-362 104.5,-362 104.5,-326 173.5,-326 173.5,-362"/>
<text text-anchor="middle" x="139" y="-340.3" font-family="Lato" font-size="14.00" fill="#0284ea">Pending</text>
</g>
<!-- start&#45;&gt;statusPending -->
<g id="edge1" class="edge">
<title>start&#45;&gt;statusPending</title>
<path fill="none" stroke="#22b022" d="M139,-450.8239C139,-430.2723 139,-396.5472 139,-372.4893"/>
<polygon fill="#22b022" stroke="#22b022" points="142.5001,-372.198 139,-362.198 135.5001,-372.198 142.5001,-372.198"/>
<text text-anchor="middle" x="189" y="-402.8" font-family="Lato" font-size="14.00" fill="#22b022">User starts flow</text>
</g>
<!-- statusComplete -->
<g id="node3" class="node">
<title>statusComplete</title>
<polygon fill="#fbfbfb" stroke="#0284ea" points="94,-192 16,-192 16,-156 94,-156 94,-192"/>
<text text-anchor="middle" x="55" y="-170.3" font-family="Lato" font-size="14.00" fill="#0284ea">Complete</text>
</g>
<!-- statusPending&#45;&gt;statusComplete -->
<g id="edge2" class="edge">
<title>statusPending&#45;&gt;statusComplete</title>
<path fill="none" stroke="#22b022" d="M106.427,-325.8004C92.9484,-316.5587 78.5075,-304.0759 70,-289 54.9156,-262.2693 52.4771,-226.5957 52.9726,-202.1081"/>
<polygon fill="#22b022" stroke="#22b022" points="56.473,-202.1624 53.3539,-192.0371 49.478,-201.8975 56.473,-202.1624"/>
<text text-anchor="start" x="70" y="-262.8" font-family="Lato" font-size="14.00" fill="#22b022">Payment</text>
<text text-anchor="middle" x="104.5" y="-247.8" font-family="Lato" font-size="14.00" fill="#22b022">Confirmed</text>
</g>
<!-- statusCancelled -->
<g id="node4" class="node">
<title>statusCancelled</title>
<polygon fill="#fbfbfb" stroke="#0284ea" points="192,-192 112,-192 112,-156 192,-156 192,-192"/>
<text text-anchor="middle" x="152" y="-170.3" font-family="Lato" font-size="14.00" fill="#0284ea">Cancelled</text>
</g>
<!-- statusPending&#45;&gt;statusCancelled -->
<g id="edge4" class="edge">
<title>statusPending&#45;&gt;statusCancelled</title>
<path fill="none" stroke="#b02222" d="M140.3912,-325.807C142.6588,-296.1543 147.1672,-237.1984 149.8495,-202.1223"/>
<polygon fill="#b02222" stroke="#b02222" points="153.346,-202.3 150.6188,-192.0622 146.3664,-201.7662 153.346,-202.3"/>
<text text-anchor="start" x="147" y="-277.8" font-family="Lato" font-size="14.00" fill="#b02222">Cancelled</text>
<text text-anchor="start" x="147" y="-262.8" font-family="Lato" font-size="14.00" fill="#b02222">or</text>
<text text-anchor="start" x="147" y="-247.8" font-family="Lato" font-size="14.00" fill="#b02222">Abandoned</text>
<text text-anchor="middle" x="184.5" y="-232.8" font-family="Lato" font-size="14.00" fill="#b02222">mandate</text>
</g>
<!-- statusFailed -->
<g id="node5" class="node">
<title>statusFailed</title>
<polygon fill="#fbfbfb" stroke="#0284ea" points="278,-192 222,-192 222,-156 278,-156 278,-192"/>
<text text-anchor="middle" x="250" y="-170.3" font-family="Lato" font-size="14.00" fill="#0284ea">Failed</text>
</g>
<!-- statusPending&#45;&gt;statusFailed -->
<g id="edge5" class="edge">
<title>statusPending&#45;&gt;statusFailed</title>
<path fill="none" stroke="#b02222" d="M173.5926,-330.1683C191.8922,-321.1138 213.1683,-307.501 226,-289 243.8203,-263.3062 248.904,-227.1421 250.115,-202.2637"/>
<polygon fill="#b02222" stroke="#b02222" points="253.6205,-202.133 250.427,-192.031 246.6238,-201.9196 253.6205,-202.133"/>
<text text-anchor="middle" x="267" y="-255.3" font-family="Lato" font-size="14.00" fill="#b02222">Failed</text>
</g>
<!-- statusRefunded -->
<g id="node6" class="node">
<title>statusRefunded</title>
<polygon fill="#fbfbfb" stroke="#0284ea" points="94,-52 16,-52 16,-16 94,-16 94,-52"/>
<text text-anchor="middle" x="55" y="-30.3" font-family="Lato" font-size="14.00" fill="#0284ea">Refunded</text>
</g>
<!-- statusComplete&#45;&gt;statusRefunded -->
<g id="edge3" class="edge">
<title>statusComplete&#45;&gt;statusRefunded</title>
<path fill="none" stroke="#b02222" d="M55,-155.9841C55,-132.3829 55,-90.7198 55,-62.7374"/>
<polygon fill="#b02222" stroke="#b02222" points="58.5001,-62.3913 55,-52.3914 51.5001,-62.3914 58.5001,-62.3913"/>
<text text-anchor="start" x="55" y="-107.8" font-family="Lato" font-size="14.00" fill="#b02222">Late</text>
<text text-anchor="middle" x="78" y="-92.8" font-family="Lato" font-size="14.00" fill="#b02222">Failure</text>
</g>
<!-- startNew -->
<g id="node7" class="node">
<title>startNew</title>
<polygon fill="#ffffff" stroke="#bbbbbb" points="548,-487 338,-487 338,-451 548,-451 548,-487"/>
<text text-anchor="middle" x="443" y="-465.3" font-family="Lato" font-size="14.00" fill="#000000">Lifecycle of new Contributions</text>
</g>
<!-- statusNewComplete -->
<g id="node8" class="node">
<title>statusNewComplete</title>
<polygon fill="#fbfbfb" stroke="#0284ea" points="392,-362 314,-362 314,-326 392,-326 392,-362"/>
<text text-anchor="middle" x="353" y="-340.3" font-family="Lato" font-size="14.00" fill="#0284ea">Complete</text>
</g>
<!-- startNew&#45;&gt;statusNewComplete -->
<g id="edge6" class="edge">
<title>startNew&#45;&gt;statusNewComplete</title>
<path fill="none" stroke="#22b022" d="M412.0627,-450.9962C398.3076,-441.5695 382.9978,-428.8816 373,-414 364.7133,-401.6653 359.8197,-385.8959 356.9504,-372.4483"/>
<polygon fill="#22b022" stroke="#22b022" points="360.3271,-371.4625 355.0571,-362.2713 353.4452,-372.7428 360.3271,-371.4625"/>
<text text-anchor="middle" x="407.5" y="-402.8" font-family="Lato" font-size="14.00" fill="#22b022">Confirmed</text>
</g>
<!-- statusNewCancelled -->
<g id="node9" class="node">
<title>statusNewCancelled</title>
<polygon fill="#fbfbfb" stroke="#0284ea" points="490,-362 410,-362 410,-326 490,-326 490,-362"/>
<text text-anchor="middle" x="450" y="-340.3" font-family="Lato" font-size="14.00" fill="#0284ea">Cancelled</text>
</g>
<!-- startNew&#45;&gt;statusNewCancelled -->
<g id="edge8" class="edge">
<title>startNew&#45;&gt;statusNewCancelled</title>
<path fill="none" stroke="#b02222" d="M444.0179,-450.8239C445.1687,-430.2723 447.0574,-396.5472 448.4046,-372.4893"/>
<polygon fill="#b02222" stroke="#b02222" points="451.9162,-372.3781 448.9809,-362.198 444.9272,-371.9866 451.9162,-372.3781"/>
<text text-anchor="middle" x="478" y="-402.8" font-family="Lato" font-size="14.00" fill="#b02222">Cancelled</text>
</g>
<!-- statusNewFailed -->
<g id="node10" class="node">
<title>statusNewFailed</title>
<polygon fill="#fbfbfb" stroke="#0284ea" points="494,-192 438,-192 438,-156 494,-156 494,-192"/>
<text text-anchor="middle" x="466" y="-170.3" font-family="Lato" font-size="14.00" fill="#0284ea">Failed</text>
</g>
<!-- startNew&#45;&gt;statusNewFailed -->
<g id="edge7" class="edge">
<title>startNew&#45;&gt;statusNewFailed</title>
<path fill="none" stroke="#b02222" d="M492.719,-450.8316C510.3957,-440.9319 526,-426.5224 526,-406.5 526,-406.5 526,-406.5 526,-259 526,-235.8708 510.989,-214.6137 495.9835,-199.1425"/>
<polygon fill="#b02222" stroke="#b02222" points="498.2882,-196.5014 488.6834,-192.0294 493.4031,-201.515 498.2882,-196.5014"/>
<text text-anchor="middle" x="546" y="-340.3" font-family="Lato" font-size="14.00" fill="#b02222">Failed</text>
</g>
<!-- statusNewComplete&#45;&gt;statusNewFailed -->
<g id="edge9" class="edge">
<title>statusNewComplete&#45;&gt;statusNewFailed</title>
<path fill="none" stroke="#b02222" d="M365.093,-325.807C385.0582,-295.7709 425.0084,-235.6688 448.2034,-200.7737"/>
<polygon fill="#b02222" stroke="#b02222" points="451.3731,-202.3277 453.994,-192.0622 445.5434,-198.4527 451.3731,-202.3277"/>
<text text-anchor="start" x="428" y="-262.8" font-family="Lato" font-size="14.00" fill="#b02222">Late</text>
<text text-anchor="middle" x="451" y="-247.8" font-family="Lato" font-size="14.00" fill="#b02222">Failure</text>
</g>
<!-- start2 -->
<g id="node11" class="node">
<title>start2</title>
<polygon fill="#ffffff" stroke="#bbbbbb" points="1006,-487 748,-487 748,-451 1006,-451 1006,-487"/>
<text text-anchor="middle" x="877" y="-465.3" font-family="Lato" font-size="14.00" fill="#000000">Lifecycyle of a Recurring Contribution</text>
</g>
<!-- statusCrPending -->
<g id="node12" class="node">
<title>statusCrPending</title>
<polygon fill="#fbfbfb" stroke="#0284ea" points="911.5,-362 842.5,-362 842.5,-326 911.5,-326 911.5,-362"/>
<text text-anchor="middle" x="877" y="-340.3" font-family="Lato" font-size="14.00" fill="#0284ea">Pending</text>
</g>
<!-- start2&#45;&gt;statusCrPending -->
<g id="edge10" class="edge">
<title>start2&#45;&gt;statusCrPending</title>
<path fill="none" stroke="#22b022" d="M877,-450.8239C877,-430.2723 877,-396.5472 877,-372.4893"/>
<polygon fill="#22b022" stroke="#22b022" points="880.5001,-372.198 877,-362.198 873.5001,-372.198 880.5001,-372.198"/>
<text text-anchor="middle" x="927" y="-402.8" font-family="Lato" font-size="14.00" fill="#22b022">User starts flow</text>
</g>
<!-- statusCrIP -->
<g id="node13" class="node">
<title>statusCrIP</title>
<polygon fill="#fbfbfb" stroke="#0284ea" points="859.5,-192 770.5,-192 770.5,-156 859.5,-156 859.5,-192"/>
<text text-anchor="middle" x="815" y="-170.3" font-family="Lato" font-size="14.00" fill="#0284ea">In Progress</text>
</g>
<!-- statusCrPending&#45;&gt;statusCrIP -->
<g id="edge11" class="edge">
<title>statusCrPending&#45;&gt;statusCrIP</title>
<path fill="none" stroke="#22b022" d="M855.9958,-325.6862C846.1261,-315.8438 835.1922,-302.8906 829,-289 816.7145,-261.4406 814.0203,-226.688 813.895,-202.6377"/>
<polygon fill="#22b022" stroke="#22b022" points="817.397,-202.4381 813.993,-192.405 810.3973,-202.371 817.397,-202.4381"/>
<text text-anchor="start" x="829" y="-262.8" font-family="Lato" font-size="14.00" fill="#22b022">Redirect Flow</text>
<text text-anchor="start" x="829" y="-247.8" font-family="Lato" font-size="14.00" fill="#22b022">Completed</text>
</g>
<!-- statusCrFailed -->
<g id="node15" class="node">
<title>statusCrFailed</title>
<polygon fill="#fbfbfb" stroke="#0284ea" points="968,-192 912,-192 912,-156 968,-156 968,-192"/>
<text text-anchor="middle" x="940" y="-170.3" font-family="Lato" font-size="14.00" fill="#0284ea">Failed</text>
</g>
<!-- statusCrPending&#45;&gt;statusCrFailed -->
<g id="edge12" class="edge">
<title>statusCrPending&#45;&gt;statusCrFailed</title>
<path fill="none" stroke="#b02222" d="M893.7135,-325.9916C902.2429,-315.8421 912.0483,-302.5157 918,-289 930.2901,-261.0904 935.7309,-226.398 938.1295,-202.4577"/>
<polygon fill="#b02222" stroke="#b02222" points="941.6351,-202.5474 939.0311,-192.2776 934.6624,-201.9298 941.6351,-202.5474"/>
<text text-anchor="start" x="934" y="-277.8" font-family="Lato" font-size="14.00" fill="#b02222">User</text>
<text text-anchor="start" x="934" y="-262.8" font-family="Lato" font-size="14.00" fill="#b02222">abandons</text>
<text text-anchor="start" x="934" y="-247.8" font-family="Lato" font-size="14.00" fill="#b02222">process,</text>
<text text-anchor="start" x="934" y="-232.8" font-family="Lato" font-size="14.00" fill="#b02222">cron cleans up</text>
</g>
<!-- statusCrCancelled -->
<g id="node14" class="node">
<title>statusCrCancelled</title>
<polygon fill="#fbfbfb" stroke="#0284ea" points="670,-52 590,-52 590,-16 670,-16 670,-52"/>
<text text-anchor="middle" x="630" y="-30.3" font-family="Lato" font-size="14.00" fill="#0284ea">Cancelled</text>
</g>
<!-- statusCrIP&#45;&gt;statusCrCancelled -->
<g id="edge15" class="edge">
<title>statusCrIP&#45;&gt;statusCrCancelled</title>
<path fill="none" stroke="#b02222" d="M770.3562,-164.7194C726.3942,-154.6783 663.5016,-137.5919 647,-119 633.3881,-103.6638 629.4502,-80.5729 628.7444,-62.327"/>
<polygon fill="#b02222" stroke="#b02222" points="632.2436,-62.2073 628.6536,-52.2392 625.2438,-62.2703 632.2436,-62.2073"/>
<text text-anchor="start" x="647" y="-107.8" font-family="Lato" font-size="14.00" fill="#b02222">Mandate/subscription</text>
<text text-anchor="middle" x="717" y="-92.8" font-family="Lato" font-size="14.00" fill="#b02222">cancelled</text>
</g>
<!-- statusCrOverdue -->
<g id="node16" class="node">
<title>statusCrOverdue</title>
<polygon fill="#fbfbfb" stroke="#0284ea" points="983.5,-52 910.5,-52 910.5,-16 983.5,-16 983.5,-52"/>
<text text-anchor="middle" x="947" y="-30.3" font-family="Lato" font-size="14.00" fill="#0284ea">Overdue</text>
</g>
<!-- statusCrIP&#45;&gt;statusCrOverdue -->
<g id="edge13" class="edge">
<title>statusCrIP&#45;&gt;statusCrOverdue</title>
<path fill="none" stroke="#b02222" d="M837.7081,-155.7937C850.083,-145.4802 865.3988,-132.0611 878,-119 895.9192,-100.427 914.2409,-77.6439 927.4971,-60.3417"/>
<polygon fill="#b02222" stroke="#b02222" points="930.3189,-62.4131 933.5738,-52.3307 924.7418,-58.1827 930.3189,-62.4131"/>
<text text-anchor="start" x="904" y="-107.8" font-family="Lato" font-size="14.00" fill="#b02222">Payment</text>
<text text-anchor="middle" x="933" y="-92.8" font-family="Lato" font-size="14.00" fill="#b02222">failed</text>
</g>
<!-- statusCrCompleted -->
<g id="node17" class="node">
<title>statusCrCompleted</title>
<polygon fill="#fbfbfb" stroke="#0284ea" points="827,-52 741,-52 741,-16 827,-16 827,-52"/>
<text text-anchor="middle" x="784" y="-30.3" font-family="Lato" font-size="14.00" fill="#0284ea">Completed</text>
</g>
<!-- statusCrIP&#45;&gt;statusCrCompleted -->
<g id="edge16" class="edge">
<title>statusCrIP&#45;&gt;statusCrCompleted</title>
<path fill="none" stroke="#22b022" d="M808.7014,-155.8386C805.1852,-145.2015 800.9352,-131.4515 798,-119 793.5806,-100.2525 790.0645,-78.8552 787.6614,-62.2192"/>
<polygon fill="#22b022" stroke="#22b022" points="791.0912,-61.4715 786.2447,-52.0502 784.1581,-62.4375 791.0912,-61.4715"/>
<text text-anchor="start" x="798" y="-107.8" font-family="Lato" font-size="14.00" fill="#22b022">Subscription</text>
<text text-anchor="middle" x="838" y="-92.8" font-family="Lato" font-size="14.00" fill="#22b022"> Finished</text>
</g>
<!-- statusCrOverdue&#45;&gt;statusCrIP -->
<g id="edge14" class="edge">
<title>statusCrOverdue&#45;&gt;statusCrIP</title>
<path fill="none" stroke="#22b022" d="M958.6754,-52.1891C968.847,-70.5784 979.9614,-99.0561 966,-119 960.0564,-127.4904 910.1422,-144.6537 869.3026,-157.5617"/>
<polygon fill="#22b022" stroke="#22b022" points="868.1778,-154.2463 859.6827,-160.5774 870.2718,-160.9257 868.1778,-154.2463"/>
<text text-anchor="start" x="972" y="-107.8" font-family="Lato" font-size="14.00" fill="#22b022">Payment</text>
<text text-anchor="middle" x="1006.5" y="-92.8" font-family="Lato" font-size="14.00" fill="#22b022">Confirmed</text>
</g>
</g>
</svg>
